# xmcd
#
# Track frame offsets:
#	150
#	12634
#	28110
#	45330
#	59507
#	76117
#	95654
#	116238
#	128217
#	145829
#	162385
#	182150
#	198747
#	216647
#	235146
#
# Disc length: 3350 seconds
# Revision: 0
# Processed by: cddbd v1.5.1PL0 Copyright (c) Steve Scherf et al.
# Submitted via: cdrLabel 7.1
#
DISCID=e00d140f
DTITLE=Trisha Yearwood - Hearts In Armor 
DYEAR=1900
DGENRE=
TTITLE0=Wrong Side Of Memphis
TTITLE1=Nearest Distant Shore
TTITLE2=The Woman Before Me
TTITLE3=When Goodbye Was A Word
TTITLE4=You Say You Will
TTITLE5=Walkaway Joe
TTITLE6=Woman Walk The Line
TTITLE7=That s What I Like About You
TTITLE8=Down On My Knees
TTITLE9=You Don't Have To Move That Mountain
TTITLE10=Hearts In Armor
TTITLE11=Like We Never Had A Broken Heart
TTITLE12=Fools Like Me
TTITLE13=She s In Love With The Boy
TTITLE14=Lonesome Dove
EXTD=
EXTT0=
EXTT1=
EXTT2=
EXTT3=
EXTT4=
EXTT5=
EXTT6=
EXTT7=
EXTT8=
EXTT9=
EXTT10=
EXTT11=
EXTT12=
EXTT13=
EXTT14=
PLAYORDER=
